<svg xmlns="http://www.w3.org/2000/svg" viewBox="0 0 35 54"
     fill="none">
    <g clip-path="url(#clip0_2_347)">
        <path d="M30.5835 42.61C31.8819 42.4107 33.0956 41.8424 34.08 40.9728V45.7028C34.08 49.9328 29.0741 49.9428 25.694 50.0005H8.46602C5.08592 49.9421 0.0800171 49.9323 0.0800171 45.7023V40.9764C1.06585 41.8433 2.27906 42.4101 3.57652 42.61C5.06142 42.8957 6.572 43.0264 8.08392 43H26.0761C27.588 43.0264 29.0986 42.8957 30.5835 42.61ZM34.0585 38.2889C34.4928 41.7816 28.2239 42.026 26.0761 42.0001H8.08392C5.93552 42.0259 -0.331983 41.7817 0.101517 38.2889C0.665261 35.3304 1.38361 32.4034 2.25362 29.52C3.83222 26.5737 8.30272 27.107 11.35 27H22.81C25.8569 27.1076 30.3262 26.5732 31.9063 29.52C32.4763 31.1325 33.072 33.9806 33.6386 36.199C33.8336 36.8834 33.974 37.5823 34.0585 38.2889ZM15.7865 35.8656C16.3394 35.8561 16.5212 35.7009 17.1501 35.7009C17.779 35.7009 17.956 35.8656 18.5033 35.8609C18.9743 35.844 19.4261 35.67 19.7868 35.3667C20.0121 35.2156 20.2081 35.0251 20.3656 34.8043C19.7094 34.6657 19.292 34.3543 19.2988 34.0126C19.3175 33.7136 19.6532 33.4394 20.1873 33.2843C19.5601 32.7384 17.8256 32.956 17.2026 33.0843C16.4008 32.9108 14.8619 32.8043 14.2092 33.3964C13.0333 34.3434 14.6277 35.8517 15.7865 35.8656ZM17.1691 32.869C17.5848 32.8839 17.9974 32.7938 18.3691 32.6072C18.6735 32.4414 18.8291 32.2292 18.8053 32.0158C18.3963 32.025 17.9938 32.1209 17.6246 32.2973C17.3178 32.4528 17.1532 32.6587 17.1691 32.869Z"
              fill="#1D1D1F"/>
    </g>
    <defs>
        <clipPath id="clip0_2_347">
            <rect width="34" height="54" fill="white"
                  transform="translate(0.0800171)"/>
        </clipPath>
    </defs>
</svg>