<svg xmlns="http://www.w3.org/2000/svg" viewBox="0 0 33 54"
     fill="none">
    <g clip-path="url(#clip0_2_355)">
        <path d="M32.645 28.008C32.645 27.626 32.645 27.244 32.645 26.862C32.645 26.54 32.639 26.218 32.631 25.897C32.6221 25.1933 32.5602 24.4914 32.446 23.797C32.3274 23.1013 32.1057 22.4272 31.788 21.797C31.1422 20.5315 30.1118 19.5033 28.845 18.86C28.2148 18.5424 27.5407 18.3206 26.845 18.202C26.1506 18.0878 25.4487 18.0259 24.745 18.017C24.423 18.008 24.101 18.004 23.779 18.003C23.397 18.003 23.015 18.003 22.632 18.003H10.653C10.271 18.003 9.88901 18.003 9.50701 18.003C9.18501 18.003 8.86301 18.009 8.54201 18.017C7.83836 18.0259 7.13638 18.0878 6.44201 18.202C5.74631 18.3206 5.07221 18.5423 4.44201 18.86C3.17697 19.5051 2.14879 20.5343 1.50501 21.8C1.18742 22.4302 0.96564 23.1043 0.84701 23.8C0.732773 24.4944 0.670932 25.1963 0.66201 25.9C0.65301 26.222 0.64901 26.544 0.64801 26.866C0.64801 27.248 0.64801 27.63 0.64801 28.013V41.193C0.64801 41.493 0.65401 41.799 0.66201 42.103C0.670421 42.8056 0.731593 43.5066 0.84501 44.2C0.963582 44.8957 1.18536 45.5698 1.50301 46.2C2.14861 47.4653 3.17857 48.4936 4.44501 49.137C5.07527 49.4545 5.74935 49.6763 6.44501 49.795C7.13938 49.9092 7.84136 49.9711 8.54501 49.98C8.86701 49.989 9.18901 49.993 9.51101 49.994C9.89301 49.994 10.275 49.994 10.658 49.994H22.642C23.024 49.994 23.406 49.994 23.788 49.994C24.11 49.994 24.432 49.988 24.753 49.98C25.4567 49.9711 26.1586 49.9092 26.853 49.795C27.5487 49.6764 28.2228 49.4546 28.853 49.137C30.1157 48.4919 31.142 47.4638 31.785 46.2C32.1025 45.5697 32.3243 44.8957 32.443 44.2C32.5572 43.5056 32.6191 42.8036 32.628 42.1C32.637 41.778 32.641 41.456 32.642 41.134C32.642 40.752 32.642 40.37 32.642 39.987L32.645 28.008ZM10.504 28.382C10.9359 27.88 11.5449 27.5641 12.204 27.5C12.2512 28.1705 12.0361 28.8331 11.604 29.348C11.3989 29.6059 11.1372 29.8132 10.8391 29.9536C10.5409 30.0941 10.2145 30.164 9.88501 30.158C9.86489 29.8357 9.90927 29.5126 10.0156 29.2076C10.1218 28.9027 10.2879 28.622 10.504 28.382ZM13.816 37.6C13.334 38.309 12.838 39 12.045 39.018C11.28 39.032 11.025 38.564 10.145 38.564C9.26501 38.564 8.98301 39.004 8.26001 39.032C7.49501 39.06 6.91401 38.28 6.43301 37.572C5.44101 36.14 4.69001 33.532 5.71001 31.772C5.94609 31.3443 6.28998 30.9858 6.70749 30.7321C7.12501 30.4785 7.60163 30.3384 8.09001 30.326C8.84101 30.312 9.53501 30.826 9.99001 30.826C10.445 30.826 11.251 30.226 12.2 30.287C12.6164 30.3035 13.0234 30.4157 13.3894 30.6147C13.7555 30.8138 14.0708 31.0945 14.311 31.435C13.9347 31.667 13.623 31.9903 13.405 32.3749C13.187 32.7595 13.0697 33.1929 13.064 33.635C13.0679 34.1324 13.2157 34.618 13.4898 35.0331C13.7638 35.4482 14.1522 35.775 14.608 35.974C14.4236 36.5513 14.1568 37.0989 13.816 37.6ZM19.795 32.138H18.245V36.667C18.245 37.367 18.553 37.691 19.231 37.691C19.4166 37.688 19.6018 37.6749 19.786 37.652V38.931C19.4829 38.9803 19.1761 39.0034 18.869 39C17.269 39 16.645 38.386 16.645 36.83V32.139H15.459V30.868H16.645V28.942H18.245V30.868H19.795V32.138ZM25.214 38.938H23.514L20.654 30.868H22.345L24.351 37.353H24.389L26.395 30.868H28.057L25.214 38.938Z"
              fill="#1D1D1F"/>
    </g>
    <defs>
        <clipPath id="clip0_2_355">
            <rect width="32" height="54" fill="white"
                  transform="translate(0.64502)"/>
        </clipPath>
    </defs>
</svg>