<svg xmlns="http://www.w3.org/2000/svg" width="55"
     height="39" viewBox="0 0 55 39" fill="none">
    <g clip-path="url(#clip0_2_371)">
        <path d="M37.3473 4.22701C34.3665 2.60568 27.9819 2.75673 27.9819 2.75673H27.4683C27.4683 2.75673 21.0837 2.58554 18.1028 4.22701C17.0881 4.89517 16.2642 5.8153 15.7117 6.89736C15.1592 7.97943 14.897 9.18638 14.9508 10.4001V26.8451C14.9508 27.1371 14.9709 27.4493 15.0112 27.7413C15.1019 29.2519 15.6759 30.7222 16.6426 31.8903C19.3415 34.8913 23.9436 34.9316 27.71 34.9718C31.4863 34.9416 36.0784 34.8812 38.7773 31.8903C39.7468 30.715 40.318 29.2622 40.4087 27.7413C40.449 27.4493 40.4691 27.1472 40.4691 26.8451V10.4001C40.5274 9.1857 40.2673 7.9771 39.7143 6.89425C39.1614 5.81139 38.335 4.89191 37.3171 4.22701H37.3372H37.3473ZM27.7301 5.74763H27.4783C23.8631 5.72749 20.9628 5.27432 20.9628 4.73052C20.9628 4.18672 23.8631 3.73356 27.4783 3.71342H27.7301C31.4763 3.71342 34.4974 4.17665 34.4974 4.7406C34.4974 5.30454 31.4763 5.76777 27.7301 5.76777V5.74763ZM32.9768 4.72045C32.9768 5.02257 30.6203 5.27432 27.7301 5.27432C24.8399 5.27432 22.4834 5.03264 22.4834 4.72045C22.4834 4.40827 24.8399 4.16658 27.7301 4.16658C30.6203 4.16658 32.9768 4.40827 32.9768 4.72045Z"
              fill="#1D1D1F"/>
    </g>
    <defs>
        <clipPath id="clip0_2_371">
            <rect width="54.38" height="38.2674"
                  fill="white"
                  transform="translate(0.530029 0.73259)"/>
        </clipPath>
    </defs>
</svg>