<svg xmlns="http://www.w3.org/2000/svg" viewBox="0 0 38 54"
     fill="none">
    <g clip-path="url(#clip0_2_387)">
        <path d="M19.5588 31.55C19.3348 31.3669 19.0544 31.2668 18.765 31.2666C18.4757 31.2664 18.1952 31.3662 17.9709 31.549L17.26 32.132L15.26 33.772V38.96C15.2603 39.2409 15.3721 39.5102 15.5709 39.7087C15.7696 39.9072 16.0391 40.0186 16.32 40.0184H21.2C21.4809 40.0186 21.7504 39.9072 21.9491 39.7087C22.1479 39.5102 22.2597 39.2409 22.26 38.96V33.7642L20.26 32.1242L19.5588 31.55ZM20.26 38.0223H17.26V34.7157L18.7649 33.4819L20.26 34.7079V38.0223ZM20.052 24.9484C19.6916 24.6417 19.2339 24.4732 18.7607 24.4731C18.2875 24.4729 17.8296 24.641 17.469 24.9474L13.8728 27.9837L10.26 31.0338V42.9558C10.2602 43.2182 10.3121 43.478 10.4128 43.7203C10.5134 43.9627 10.6608 44.1828 10.8465 44.3682C11.0322 44.5536 11.2527 44.7006 11.4952 44.8007C11.7377 44.9009 11.9976 44.9524 12.26 44.9521H25.26C25.5224 44.9524 25.7823 44.9009 26.0248 44.8007C26.2674 44.7006 26.4878 44.5536 26.6735 44.3682C26.8592 44.1828 27.0066 43.9627 27.1072 43.7203C27.2079 43.478 27.2598 43.2182 27.26 42.9558V31.0339L23.6473 27.9839L20.052 24.9484ZM25.26 42.9558H12.26V31.96L14.605 29.98L15.5137 29.2129C15.5896 29.1226 15.6804 29.046 15.7821 28.9862L16.97 27.9837L18.76 26.4719L20.5505 27.9837L21.7379 28.9861C21.8396 29.0459 21.9304 29.1225 22.0063 29.2128L22.915 29.9799L25.26 31.96V42.9558ZM36.3956 31.7619L32.26 28.3612V22.5512C32.2599 22.4528 32.2404 22.3554 32.2027 22.2645C32.165 22.1736 32.1097 22.0911 32.04 22.0216C31.9704 21.9521 31.8877 21.8969 31.7968 21.8594C31.7059 21.8218 31.6084 21.8025 31.51 21.8026H29.51C29.3125 21.8064 29.1241 21.8864 28.9843 22.0259C28.8445 22.1655 28.7641 22.3537 28.76 22.5512V25.4834L27.0149 24.0484L24.5872 22.0521L20.35 18.5677C19.9015 18.2005 19.3397 17.9999 18.76 17.9999C18.1803 17.9999 17.6185 18.2005 17.17 18.5677L12.9327 22.0519L10.505 24.0482L7.26 26.7166L5.26 28.3612L1.1244 31.7619C0.92004 31.9305 0.791023 32.1734 0.765734 32.4371C0.740445 32.7008 0.820955 32.9638 0.989553 33.1681C1.15815 33.3725 1.40103 33.5015 1.66475 33.5268C1.92847 33.5521 2.19144 33.4716 2.3958 33.303L5.26 30.9477V46.756C5.2604 47.1824 5.34477 47.6045 5.50831 47.9983C5.67185 48.3921 5.91136 48.7499 6.21315 49.0511C6.51494 49.3523 6.87311 49.5912 7.2672 49.754C7.6613 49.9168 8.0836 50.0004 8.51 50H29.01C29.4364 50.0004 29.8587 49.9168 30.2528 49.754C30.6469 49.5912 31.0051 49.3523 31.3069 49.0511C31.6086 48.7499 31.8482 48.3921 32.0117 47.9983C32.1752 47.6045 32.2596 47.1824 32.26 46.756V30.9477L35.1243 33.303C35.2255 33.3865 35.3421 33.4492 35.4676 33.4876C35.593 33.526 35.7248 33.5393 35.8554 33.5268C35.9859 33.5143 36.1128 33.4762 36.2286 33.4146C36.3445 33.3531 36.4471 33.2693 36.5306 33.1681C36.614 33.067 36.6768 32.9503 36.7152 32.8249C36.7536 32.6994 36.7669 32.5677 36.7544 32.4371C36.7418 32.3065 36.7037 32.1797 36.6422 32.0638C36.5807 31.948 36.4968 31.8454 36.3956 31.7619ZM30.26 46.756C30.2594 47.0871 30.1274 47.4045 29.8931 47.6384C29.6587 47.8723 29.3411 48.0037 29.01 48.0037H8.51C8.17888 48.0037 7.86129 47.8723 7.62693 47.6384C7.39258 47.4045 7.26061 47.0871 7.26 46.756V29.3032L13.6507 24.0482L16.0784 22.0519L18.4415 20.1088C18.5313 20.0353 18.6438 19.9951 18.7599 19.9951C18.876 19.9951 18.9885 20.0353 19.0783 20.1088L21.4414 22.0519L23.8691 24.0482L30.26 29.3032V46.756Z"
              fill="#1D1D1F"/>
    </g>
    <defs>
        <clipPath id="clip0_2_387">
            <rect width="37" height="54" fill="white"
                  transform="translate(0.26001)"/>
        </clipPath>
    </defs>
</svg>