<svg xmlns="http://www.w3.org/2000/svg" width="23"
     height="54" viewBox="0 0 23 54" fill="none">
    <g clip-path="url(#clip0_2_378)">
        <path d="M21.4944 36.2673C20.8774 34.354 19.6921 32.6741 18.0964 31.4512C17.636 31.127 17.0914 30.9432 16.5286 30.9222C15.3773 30.8039 14.2222 30.6941 13.0662 30.6559C12.574 30.6397 12.0812 30.632 11.588 30.6327C11.095 30.6327 10.6023 30.6404 10.1099 30.6559C8.95389 30.6941 7.79882 30.8039 6.64748 30.9222C6.08472 30.9432 5.54012 31.127 5.0797 31.4512C3.50491 32.694 2.3245 34.367 1.6816 36.2673C1.22822 37.5823 1.04684 38.9757 1.14847 40.3629C1.27202 42.2721 1.918 44.1106 3.0158 45.6774C3.95423 47.0535 5.21239 48.1814 6.68239 48.9644C7.13493 49.2279 7.61465 49.4416 8.11317 49.6018C9.2483 49.8901 10.4171 50.024 11.588 50C12.7589 50.024 13.9277 49.89 15.0629 49.6018C15.5614 49.4415 16.0411 49.2278 16.4936 48.9644C17.9636 48.1813 19.2218 47.0534 20.1602 45.6774C21.258 44.1105 21.904 42.272 22.0275 40.3629C22.1436 38.9753 21.9618 37.5789 21.4944 36.2673ZM11.588 32.6811C8.52561 32.6811 6.04301 32.3035 6.04301 31.8376C6.04301 31.3718 8.52557 30.9941 11.588 30.9941C14.6504 30.9941 17.1329 31.3718 17.1329 31.8376C17.1329 32.3035 14.6504 32.6811 11.588 32.6811Z"
              fill="#1D1D1F"/>
        <path d="M11.588 32.2641C13.8273 32.2641 15.6427 32.0732 15.6427 31.8376C15.6427 31.602 13.8273 31.4111 11.588 31.4111C9.34866 31.4111 7.53333 31.602 7.53333 31.8376C7.53333 32.0732 9.34866 32.2641 11.588 32.2641Z"
              fill="#1D1D1F"/>
    </g>
    <defs>
        <clipPath id="clip0_2_378">
            <rect width="22" height="54" fill="white"
                  transform="translate(0.590027)"/>
        </clipPath>
    </defs>
</svg>