<svg xmlns="http://www.w3.org/2000/svg" viewBox="0 0 22 54"
     fill="none">
    <g clip-path="url(#clip0_2_394)">
        <path d="M17.6 37.23C19.2121 35.5918 21.13 32.999 21.13 29.9406C21.1447 27.2153 20.0884 24.5933 18.1887 22.6393C17.2795 21.6923 16.1906 20.9362 14.9856 20.4151C13.7807 19.894 12.4839 19.6184 11.1712 19.6045H11.0595C9.75176 19.6223 8.46058 19.8998 7.26095 20.4207C6.06133 20.9417 4.97716 21.6958 4.0714 22.6393C2.1731 24.5918 1.11692 27.2114 1.13 29.9346C1.13 32.993 3.03 35.5859 4.6242 37.23C5.96964 38.8211 6.69455 40.8449 6.6653 42.9284L6.671 44H15.6183V42.9461C15.5675 40.864 16.2713 38.8338 17.6 37.23ZM13.63 53H8.63V52H13.63V53ZM15.63 50H6.63V49H15.63V50ZM15.63 47H6.63V46H15.63V47Z"
              fill="#1D1D1F"/>
    </g>
    <defs>
        <clipPath id="clip0_2_394">
            <rect width="21" height="54" fill="white"
                  transform="translate(0.630005)"/>
        </clipPath>
    </defs>
</svg>