<svg xmlns="http://www.w3.org/2000/svg" viewBox="0 0 16 45"
     fill="none">
    <g clip-path="url(#clip0_2_425)">
        <path d="M14.9879 27.702L11.1179 23.832C11.8189 22.903 12.2399 21.751 12.2399 20.5C12.2399 17.44 9.75089 14.95 6.68989 14.95C3.62989 14.95 1.13989 17.44 1.13989 20.5C1.13989 23.561 3.62989 26.05 6.68989 26.05C7.94089 26.05 9.09289 25.629 10.0219 24.928L13.8919 28.798C14.0429 28.949 14.2419 29.026 14.4399 29.026C14.6379 29.026 14.8359 28.95 14.9879 28.798C15.2909 28.495 15.2909 28.005 14.9879 27.702ZM2.23989 20.5C2.23989 18.046 4.23689 16.05 6.68989 16.05C9.14389 16.05 11.1399 18.047 11.1399 20.5C11.1399 22.953 9.14389 24.95 6.68989 24.95C4.23589 24.95 2.23989 22.954 2.23989 20.5Z"
              fill="black" fill-opacity="0.8"/>
    </g>
    <defs>
        <clipPath id="clip0_2_425">
            <rect width="15" height="44" fill="white"
                  transform="translate(0.689941 0.5)"/>
        </clipPath>
    </defs>
</svg>