<svg xmlns="http://www.w3.org/2000/svg" width="15"
     height="45" viewBox="0 0 15 45" fill="none">
    <g clip-path="url(#clip0_2_427)">
        <path d="M12.1836 16.5283H11.1631C11.0537 15.7173 10.6574 14.9723 10.0459 14.4284C9.43444 13.8845 8.64835 13.5776 7.83011 13.5635C7.01187 13.5776 6.22577 13.8845 5.61432 14.4284C5.00286 14.9723 4.60651 15.7173 4.49711 16.5283H3.47711C2.9159 16.5287 2.37777 16.7517 1.98085 17.1485C1.58394 17.5452 1.36069 18.0833 1.36011 18.6445V26.36C1.36061 26.9211 1.58371 27.4592 1.98045 27.856C2.37719 28.2528 2.91516 28.4761 3.47631 28.4767H12.1833C12.7446 28.4762 13.2827 28.2531 13.6795 27.8562C14.0764 27.4594 14.2996 26.9212 14.3001 26.36V18.6445C14.2995 18.0834 14.0763 17.5454 13.6795 17.1487C13.2827 16.7519 12.7447 16.5288 12.1836 16.5283ZM7.83011 14.6631C8.35752 14.6746 8.86523 14.8657 9.26929 15.2048C9.67336 15.544 9.94958 16.0109 10.0523 16.5283H5.60791C5.71063 16.0109 5.98686 15.544 6.39092 15.2048C6.79499 14.8657 7.3027 14.6746 7.83011 14.6631ZM13.2001 26.36C13.1998 26.6296 13.0926 26.888 12.9021 27.0787C12.7115 27.2694 12.4531 27.3767 12.1835 27.3771H3.47661C3.20705 27.3766 2.94867 27.2693 2.75812 27.0787C2.56757 26.888 2.4604 26.6296 2.46011 26.36V18.6445C2.46043 18.375 2.56763 18.1166 2.75821 17.926C2.94879 17.7354 3.20719 17.6282 3.47671 17.6279H12.1837C12.4532 17.6283 12.7115 17.7355 12.9021 17.9261C13.0926 18.1167 13.1998 18.375 13.2001 18.6445V26.36Z"
              fill="black" fill-opacity="0.8"/>
    </g>
    <defs>
        <clipPath id="clip0_2_427">
            <rect width="14" height="44" fill="white"
                  transform="translate(0.830078 0.5)"/>
        </clipPath>
    </defs>
</svg>