<svg xmlns="http://www.w3.org/2000/svg" viewBox="0 0 48 54"
     fill="none">
    <g clip-path="url(#clip0_2_363)">
        <path d="M11.205 30.652C11.8409 29.8856 12.1562 28.9033 12.085 27.91C11.1098 28.0042 10.2095 28.4744 9.57501 29.221C9.25889 29.5785 9.01662 29.995 8.86216 30.4466C8.70769 30.8981 8.64409 31.3758 8.67501 31.852C9.16081 31.8614 9.64217 31.7579 10.0812 31.5496C10.5202 31.3414 10.9049 31.0341 11.205 30.652ZM12.025 32.033C10.625 31.952 9.44501 32.833 8.77501 32.833C8.10501 32.833 7.08501 32.077 5.98501 32.097C5.26473 32.1172 4.56238 32.3261 3.94817 32.7029C3.33396 33.0797 2.82943 33.6111 2.48501 34.244C0.98501 36.844 2.08501 40.717 3.54501 42.834C4.25501 43.84 5.10501 45.039 6.23501 45C7.36501 44.961 7.71501 44.3 9.00501 44.3C10.295 44.3 10.675 45 11.795 44.975C12.915 44.95 13.695 43.967 14.395 42.875C14.8994 42.1288 15.2935 41.3138 15.565 40.455C14.8924 40.1575 14.3202 39.6718 13.9175 39.0565C13.5147 38.4411 13.2985 37.7224 13.295 36.987C13.3033 36.3345 13.4752 35.6945 13.7949 35.1257C14.1146 34.5568 14.5719 34.0773 15.125 33.731C14.7735 33.2286 14.3111 32.8139 13.7735 32.5191C13.2359 32.2243 12.6376 32.0573 12.025 32.031M20.955 30.015V32.87H23.235V34.755H20.955V41.51C20.955 42.518 21.405 43.032 22.405 43.032C22.6792 43.0269 22.953 43.0068 23.225 42.972V44.872C22.7788 44.9445 22.3271 44.9779 21.875 44.972C19.515 44.972 18.605 44.055 18.605 41.756V34.8H16.815V32.911H18.555V30.017L20.955 30.015ZM31.205 44.868H28.705L24.505 32.911H26.995L29.945 42.519H30.005L32.955 32.911H35.395L31.205 44.868ZM42.185 44.868H40.025V39.968H35.385V37.811H40.015V32.911H42.175V37.811H46.815V39.969H42.185V44.868Z"
              fill="#1D1D1F"/>
    </g>
    <defs>
        <clipPath id="clip0_2_363">
            <rect width="47" height="54" fill="white"
                  transform="translate(0.815002)"/>
        </clipPath>
    </defs>
</svg>