<svg width="0" height="0" class="hidden">
    <symbol fill="none" xmlns="http://www.w3.org/2000/svg"
            viewBox="0 0 50 50" id="facebook">
        <rect width="50" height="50" fill="#F5F5F5"></rect>
        <g clip-path="url(#clip0_0_1)">
            <rect width="1440" height="4853"
                  transform="translate(-650 -3286)"
                  fill="white"></rect>
            <rect x="-650" y="-500" width="1440"
                  height="650" fill="#0D0402"></rect>
            <circle opacity="0.4" cx="25" cy="25" r="24.5"
                    stroke="white"></circle>
            <path d="M29.1668 16.6665H26.6668C25.5617 16.6665 24.5019 17.1055 23.7205 17.8869C22.9391 18.6683 22.5001 19.7281 22.5001 20.8332V23.3332H20.0001V26.6665H22.5001V33.3332H25.8334V26.6665H28.3334L29.1668 23.3332H25.8334V20.8332C25.8334 20.6122 25.9212 20.4002 26.0775 20.2439C26.2338 20.0876 26.4458 19.9998 26.6668 19.9998H29.1668V16.6665Z"
                  stroke="white" stroke-linecap="round"
                  stroke-linejoin="round"></path>
        </g>
        <defs>
            <clipPath id="clip0_0_1">
                <rect width="1440" height="4853"
                      fill="white"
                      transform="translate(-650 -3286)"></rect>
            </clipPath>
        </defs>
    </symbol>
    <symbol fill="none" xmlns="http://www.w3.org/2000/svg"
            viewBox="0 0 50 50" id="instagram">
        <rect width="50" height="50" fill="#F5F5F5"></rect>
        <g clip-path="url(#clip0_0_1)">
            <rect width="1440" height="4853"
                  transform="translate(-740 -3286)"
                  fill="white"></rect>
            <rect x="-740" y="-500" width="1440"
                  height="650" fill="#0D0402"></rect>
            <circle opacity="0.4" cx="25" cy="25" r="24.5"
                    stroke="white"></circle>
            <path d="M29.1668 16.6665H20.8334C18.5322 16.6665 16.6668 18.532 16.6668 20.8332V29.1665C16.6668 31.4677 18.5322 33.3332 20.8334 33.3332H29.1668C31.4679 33.3332 33.3334 31.4677 33.3334 29.1665V20.8332C33.3334 18.532 31.4679 16.6665 29.1668 16.6665Z"
                  stroke="white" stroke-linecap="round"
                  stroke-linejoin="round"></path>
            <path d="M28.3322 24.4753C28.4351 25.1688 28.3166 25.8771 27.9937 26.4994C27.6708 27.1218 27.1599 27.6264 26.5336 27.9416C25.9073 28.2569 25.1976 28.3666 24.5054 28.2552C23.8132 28.1438 23.1737 27.817 22.6779 27.3212C22.1822 26.8255 21.8553 26.186 21.744 25.4938C21.6326 24.8015 21.7423 24.0918 22.0575 23.4656C22.3727 22.8393 22.8774 22.3284 23.4997 22.0055C24.122 21.6825 24.8304 21.5641 25.5239 21.6669C26.2313 21.7718 26.8863 22.1015 27.392 22.6072C27.8977 23.1129 28.2273 23.7678 28.3322 24.4753Z"
                  stroke="white" stroke-linecap="round"
                  stroke-linejoin="round"></path>
            <path d="M29.5826 20.4168H29.5914"
                  stroke="white" stroke-linecap="round"
                  stroke-linejoin="round"></path>
        </g>
        <defs>
            <clipPath id="clip0_0_1">
                <rect width="1440" height="4853"
                      fill="white"
                      transform="translate(-740 -3286)"></rect>
            </clipPath>
        </defs>
    </symbol>
    <symbol fill="none" xmlns="http://www.w3.org/2000/svg"
            viewBox="0 0 50 50" id="linkdin">
        <rect width="50" height="50" fill="#F5F5F5"></rect>
        <g clip-path="url(#clip0_0_1)">
            <rect width="1440" height="4853"
                  transform="translate(-830 -3286)"
                  fill="white"></rect>
            <rect x="-830" y="-500" width="1440"
                  height="650" fill="#0D0402"></rect>
            <circle opacity="0.4" cx="25" cy="25" r="24.5"
                    stroke="white"></circle>
            <path d="M28.3341 21.6669C29.6602 21.6669 30.932 22.1937 31.8697 23.1314C32.8073 24.0691 33.3341 25.3408 33.3341 26.6669V32.5003H30.0008V26.6669C30.0008 26.2249 29.8252 25.801 29.5126 25.4884C29.2001 25.1759 28.7761 25.0003 28.3341 25.0003C27.8921 25.0003 27.4682 25.1759 27.1556 25.4884C26.8431 25.801 26.6675 26.2249 26.6675 26.6669V32.5003H23.3341V26.6669C23.3341 25.3408 23.8609 24.0691 24.7986 23.1314C25.7363 22.1937 27.008 21.6669 28.3341 21.6669Z"
                  stroke="white" stroke-linecap="round"
                  stroke-linejoin="round"></path>
            <path d="M20.001 22.4998H16.6677V32.4998H20.001V22.4998Z"
                  stroke="white" stroke-linecap="round"
                  stroke-linejoin="round"></path>
            <path d="M18.3344 19.9998C19.2548 19.9998 20.001 19.2536 20.001 18.3332C20.001 17.4127 19.2548 16.6665 18.3344 16.6665C17.4139 16.6665 16.6677 17.4127 16.6677 18.3332C16.6677 19.2536 17.4139 19.9998 18.3344 19.9998Z"
                  stroke="white" stroke-linecap="round"
                  stroke-linejoin="round"></path>
        </g>
        <defs>
            <clipPath id="clip0_0_1">
                <rect width="1440" height="4853"
                      fill="white"
                      transform="translate(-830 -3286)"></rect>
            </clipPath>
        </defs>
    </symbol>
    <symbol fill="none" xmlns="http://www.w3.org/2000/svg"
            viewBox="0 0 20 16" id="mail">
        <rect width="20" height="16" fill="#F5F5F5"></rect>
        <g clip-path="url(#clip0_0_1)">
            <rect width="1440" height="4853"
                  transform="translate(-545 -3232)"
                  fill="white"></rect>
            <rect x="-545" y="-446" width="1440"
                  height="650" fill="#0D0402"></rect>
            <path d="M2.75 1H16.75C17.7125 1 18.5 1.7875 18.5 2.75V13.25C18.5 14.2125 17.7125 15 16.75 15H2.75C1.7875 15 1 14.2125 1 13.25V2.75C1 1.7875 1.7875 1 2.75 1Z"
                  stroke="white" stroke-width="2"
                  stroke-linecap="round"
                  stroke-linejoin="round"></path>
            <path d="M18.5 2.75L9.75 8.875L1 2.75"
                  stroke="white" stroke-width="2"
                  stroke-linecap="round"
                  stroke-linejoin="round"></path>
        </g>
        <defs>
            <clipPath id="clip0_0_1">
                <rect width="1440" height="4853"
                      fill="white"
                      transform="translate(-545 -3232)"></rect>
            </clipPath>
        </defs>
    </symbol>
    <symbol fill="none" xmlns="http://www.w3.org/2000/svg"
            viewBox="0 0 24 24" id="telephone">
        <rect width="24" height="24" fill="#F5F5F5"></rect>
        <g clip-path="url(#clip0_0_1)">
            <rect width="1440" height="4853"
                  transform="translate(-600 -3165)"
                  fill="white"></rect>
            <rect x="-600" y="-379" width="1440"
                  height="650" fill="#0D0402"></rect>
            <path d="M24 9.1327C24 5.33085 20.907 2.23785 17.1052 2.23785H6.89484C3.093 2.2379 0 5.3309 0 9.13275C0 10.2554 0.913359 11.1688 2.03602 11.1688H3.97945L2.57236 14.3552C2.07511 15.4814 1.82297 16.6765 1.82297 17.9076V19.2132C1.82297 20.6189 2.96653 21.7624 4.37217 21.7624H19.6275C21.0331 21.7624 22.1767 20.6189 22.1767 19.2132V17.9076C22.1767 16.6765 21.9246 15.4814 21.4273 14.3552L20.0202 11.1688H21.9639C23.0866 11.1687 24 10.2554 24 9.1327ZM6.89484 3.80985H17.1052V3.8099C19.3193 3.8099 21.2216 5.1689 22.0228 7.0964H17.4928C17.1057 6.69567 16.5634 6.44573 15.9635 6.44573H8.03653C7.43555 6.44573 6.89236 6.69665 6.50503 7.09865C6.48994 7.09781 6.47498 7.09635 6.4597 7.09635H1.97728C2.77837 5.16881 4.6808 3.80985 6.89484 3.80985ZM2.03602 9.59667C1.78017 9.59667 1.57205 9.38859 1.57205 9.1327C1.57205 8.97628 1.57922 8.8215 1.59253 8.66845H5.90883V9.27515C5.90883 9.45243 5.76455 9.59662 5.58731 9.59662H2.03602V9.59667ZM20.6047 17.9074V19.2131C20.6047 19.7519 20.1664 20.1902 19.6275 20.1902H4.37217C3.83339 20.1902 3.39502 19.7519 3.39502 19.2131V17.9074C3.39502 16.8965 3.60206 15.9149 4.01044 14.9902L5.69958 11.1651C6.69164 11.1068 7.48092 10.2816 7.48092 9.2752V8.57357C7.48092 8.26715 7.7302 8.01787 8.03658 8.01787H15.9634C16.2698 8.01787 16.5191 8.26715 16.5191 8.57357V9.2752C16.5191 10.2815 17.3081 11.1067 18.3 11.1651L19.9892 14.9902C20.3977 15.915 20.6047 16.8964 20.6047 17.9074ZM18.4127 9.59671V9.59667C18.2355 9.59667 18.0912 9.45248 18.0912 9.2752V8.6685H22.4075C22.4208 8.82154 22.428 8.97632 22.428 9.13279C22.428 9.38864 22.2199 9.59676 21.964 9.59676H18.4127V9.59671Z"
                  fill="white"></path>
            <path d="M9.25518 12.8365C9.73546 12.8365 10.1248 12.4472 10.1248 11.9669C10.1248 11.4866 9.73546 11.0973 9.25518 11.0973C8.7749 11.0973 8.38556 11.4866 8.38556 11.9669C8.38556 12.4472 8.7749 12.8365 9.25518 12.8365Z"
                  fill="white"></path>
            <path d="M12 12.8365C12.4803 12.8365 12.8696 12.4472 12.8696 11.9669C12.8696 11.4866 12.4803 11.0973 12 11.0973C11.5197 11.0973 11.1304 11.4866 11.1304 11.9669C11.1304 12.4472 11.5197 12.8365 12 12.8365Z"
                  fill="white"></path>
            <path d="M14.7448 12.8365C15.2251 12.8365 15.6144 12.4472 15.6144 11.9669C15.6144 11.4866 15.2251 11.0973 14.7448 11.0973C14.2645 11.0973 13.8752 11.4866 13.8752 11.9669C13.8752 12.4472 14.2645 12.8365 14.7448 12.8365Z"
                  fill="white"></path>
            <path d="M9.25518 15.4799C9.73546 15.4799 10.1248 15.0905 10.1248 14.6102C10.1248 14.1299 9.73546 13.7406 9.25518 13.7406C8.7749 13.7406 8.38556 14.1299 8.38556 14.6102C8.38556 15.0905 8.7749 15.4799 9.25518 15.4799Z"
                  fill="white"></path>
            <path d="M12 15.4799C12.4803 15.4799 12.8696 15.0905 12.8696 14.6102C12.8696 14.1299 12.4803 13.7406 12 13.7406C11.5197 13.7406 11.1304 14.1299 11.1304 14.6102C11.1304 15.0905 11.5197 15.4799 12 15.4799Z"
                  fill="white"></path>
            <path d="M14.7448 15.4799C15.2251 15.4799 15.6144 15.0905 15.6144 14.6102C15.6144 14.1299 15.2251 13.7406 14.7448 13.7406C14.2645 13.7406 13.8752 14.1299 13.8752 14.6102C13.8752 15.0905 14.2645 15.4799 14.7448 15.4799Z"
                  fill="white"></path>
            <path d="M9.25518 18.1228C9.73546 18.1228 10.1248 17.7335 10.1248 17.2532C10.1248 16.7729 9.73546 16.3835 9.25518 16.3835C8.7749 16.3835 8.38556 16.7729 8.38556 17.2532C8.38556 17.7335 8.7749 18.1228 9.25518 18.1228Z"
                  fill="white"></path>
            <path d="M12 18.1228C12.4803 18.1228 12.8696 17.7335 12.8696 17.2532C12.8696 16.7729 12.4803 16.3835 12 16.3835C11.5197 16.3835 11.1304 16.7729 11.1304 17.2532C11.1304 17.7335 11.5197 18.1228 12 18.1228Z"
                  fill="white"></path>
            <path d="M14.7448 18.1228C15.2251 18.1228 15.6144 17.7335 15.6144 17.2532C15.6144 16.7729 15.2251 16.3835 14.7448 16.3835C14.2645 16.3835 13.8752 16.7729 13.8752 17.2532C13.8752 17.7335 14.2645 18.1228 14.7448 18.1228Z"
                  fill="white"></path>
        </g>
        <defs>
            <clipPath id="clip0_0_1">
                <rect width="1440" height="4853"
                      fill="white"
                      transform="translate(-600 -3165)"></rect>
            </clipPath>
        </defs>
    </symbol>
    <symbol fill="currentColor"
            xmlns="http://www.w3.org/2000/svg"
            viewBox="0 0 50 50" id="twitter">
        <rect width="50" height="50"></rect>
        <g clip-path="url(#clip0_0_1)">
            <rect width="1440" height="4853"
                  transform="translate(-560 -3286)"></rect>
            <rect x="-560" y="-500" width="1440"
                  height="650" fill="#0D0402"></rect>
            <circle opacity="0.4" cx="25" cy="25" r="24.5"
                    stroke="white"></circle>
            <path d="M33.3333 18.3417C32.5353 18.9046 31.6517 19.3351 30.7166 19.6167C30.2147 19.0396 29.5477 18.6306 28.8058 18.445C28.0639 18.2593 27.2829 18.306 26.5683 18.5787C25.8538 18.8515 25.2403 19.337 24.8108 19.9698C24.3812 20.6026 24.1564 21.352 24.1666 22.1167V22.95C22.7021 22.988 21.251 22.6632 19.9424 22.0046C18.6339 21.3459 17.5085 20.3739 16.6666 19.175C16.6666 19.175 13.3333 26.675 20.8333 30.0084C19.117 31.1733 17.0726 31.7575 14.9999 31.675C22.4999 35.8417 31.6666 31.675 31.6666 22.0917C31.6658 21.8596 31.6435 21.628 31.5999 21.4C32.4504 20.5613 33.0506 19.5023 33.3333 18.3417V18.3417Z"
                  stroke="white" stroke-linecap="round"
                  stroke-linejoin="round"></path>
        </g>
        <defs>
            <clipPath id="clip0_0_1">
                <rect width="1440" height="4853"
                      fill="white"
                      transform="translate(-560 -3286)"></rect>
            </clipPath>
        </defs>
    </symbol>
</svg>